<svg width="2270" height="677" viewBox="0 0 2270 677" fill="none" xmlns="http://www.w3.org/2000/svg">
<path d="M1.08022 489.719C-8.76654 623.417 891.324 722.296 815.802 500.326C813.48 493.5 808.72 487.249 803.198 482.613C743.037 432.118 702.787 413.957 558.375 402.944C461.608 397.982 -3.42 402.943 1.08022 489.719Z" fill="#CD9400" stroke="#CD9400"/>
<path d="M63.9349 453.044C62.2042 386.401 115.774 352.811 219.093 378.422C224.299 379.713 229.48 381.499 234.222 384.002C264.706 400.09 243.69 408.21 229.488 409.72C223.427 410.364 217.291 408.85 211.259 407.978C89.1252 390.326 111.488 476.049 202.314 506.462C391.846 585.04 566.061 546.889 587.425 541.727C588.901 541.37 590.387 541.011 591.871 540.687C676.248 522.221 721.893 507.056 679.669 491.818C673.843 489.715 667.622 488.839 661.538 487.672C621.347 479.96 610.43 449.548 679.433 450.054C697.929 450.19 741.34 457.235 769.735 482.786C798.129 508.338 771.128 536.458 718.291 552.969C626.616 584.856 534.127 596.053 421.585 598.979C309.043 601.906 70.4212 550.907 63.9349 453.044Z" fill="#C8C8C8" stroke="#C8C8C8"/>
<path d="M606.678 438.029C609.285 449.973 610.806 455.382 614.97 476.593C616.041 482.045 616.248 499.616 599.879 506.086C530.328 533.579 323.112 548.994 245.589 487.529C214.717 468.497 194.599 452.831 190.174 421.919C187.478 403.093 190.604 378.612 200.665 344.273C228.272 222.014 254.903 178.586 301.91 55.9529C331.31 -7.02471 367.19 -18.4842 377.017 29.9701C386.844 78.4244 381.031 71.6728 395.969 78.4244C409.225 84.416 482.426 91.1107 513.453 82.4817C520.085 80.6373 524.774 75.2681 528.231 69.3155C554.996 23.2225 563.925 19.1848 574.323 23.5767C575.939 24.2594 577.393 25.3003 578.664 26.5095C604.587 51.167 600.513 73.9206 608.697 107.082C609.014 108.369 609.225 109.705 609.295 111.029C611.654 155.16 611.569 179.3 609.187 219.977C601.619 339.927 601.834 376.737 602.803 405.865C603.161 416.636 604.379 427.501 606.678 438.029Z" fill="#C8C8C8"/>
<path d="M990.88 515.8C976.96 515.8 961.24 514.6 943.72 512.2C934.12 511 927.52 508.48 923.92 504.64C920.32 500.8 918.76 494.56 919.24 485.92C920.92 462.16 924.88 432.88 931.12 398.08C937.36 363.04 944.92 329.32 953.8 296.92C955.48 290.92 958.84 286.72 963.88 284.32C968.92 281.92 975.52 280.72 983.68 280.72C998.32 280.72 1005.64 284.8 1005.64 292.96C1005.64 296.32 1004.92 300.16 1003.48 304.48C997.24 323.68 991 349.48 984.76 381.88C978.52 414.04 974.08 444.76 971.44 474.04C978.64 474.76 986.8 475.12 995.92 475.12C1037.92 475.12 1069.24 462.4 1089.88 436.96C1110.76 411.52 1121.2 377.56 1121.2 335.08C1121.2 306.52 1113.04 284.44 1096.72 268.84C1080.4 253.24 1057.36 245.44 1027.6 245.44C1008.4 245.44 989.32 248.44 970.36 254.44C951.64 260.44 934.72 268.36 919.6 278.2C916.48 280.36 913.12 281.44 909.52 281.44C905.44 281.44 902.2 279.76 899.8 276.4C897.4 272.8 896.2 268.48 896.2 263.44C896.2 257.68 897.16 253 899.08 249.4C901 245.56 904.24 242.08 908.8 238.96C925.36 227.68 944.8 219.16 967.12 213.4C989.44 207.4 1010.92 204.4 1031.56 204.4C1060.84 204.4 1086.16 209.56 1107.52 219.88C1128.88 229.96 1145.32 244.84 1156.84 264.52C1168.36 284.2 1174.12 307.96 1174.12 335.8C1174.12 372.04 1166.92 403.72 1152.52 430.84C1138.12 457.72 1117.12 478.6 1089.52 493.48C1061.92 508.36 1029.04 515.8 990.88 515.8ZM1220.26 515.8C1211.14 515.8 1204.66 511 1200.82 501.4C1197.22 491.8 1195.42 476.44 1195.42 455.32C1195.42 424.12 1199.86 394.48 1208.74 366.4C1210.9 359.44 1214.38 354.4 1219.18 351.28C1224.22 347.92 1231.18 346.24 1240.06 346.24C1244.86 346.24 1248.22 346.84 1250.14 348.04C1252.06 349.24 1253.02 351.52 1253.02 354.88C1253.02 358.72 1251.22 367.36 1247.62 380.8C1245.22 390.4 1243.3 398.8 1241.86 406C1240.42 413.2 1239.22 422.08 1238.26 432.64C1246.18 412 1255.06 395.2 1264.9 382.24C1274.74 369.28 1284.34 360.04 1293.7 354.52C1303.3 349 1312.06 346.24 1319.98 346.24C1335.58 346.24 1343.38 354.04 1343.38 369.64C1343.38 372.76 1342.3 380.32 1340.14 392.32C1338.22 401.92 1337.26 407.92 1337.26 410.32C1337.26 418.72 1340.26 422.92 1346.26 422.92C1352.98 422.92 1361.62 417.64 1372.18 407.08C1375.3 403.96 1378.54 402.4 1381.9 402.4C1385.02 402.4 1387.42 403.84 1389.1 406.72C1391.02 409.36 1391.98 412.96 1391.98 417.52C1391.98 426.4 1389.58 433.36 1384.78 438.4C1378.06 445.36 1370.14 451.36 1361.02 456.4C1352.14 461.2 1342.66 463.6 1332.58 463.6C1319.86 463.6 1310.14 460.36 1303.42 453.88C1296.94 447.4 1293.7 438.64 1293.7 427.6C1293.7 424 1294.06 420.4 1294.78 416.8C1295.26 412 1295.5 408.76 1295.5 407.08C1295.5 403.24 1294.18 401.32 1291.54 401.32C1287.94 401.32 1283.14 405.4 1277.14 413.56C1271.38 421.48 1265.62 432.04 1259.86 445.24C1254.1 458.44 1249.42 472.36 1245.82 487C1243.18 498.28 1240.06 505.96 1236.46 510.04C1233.1 513.88 1227.7 515.8 1220.26 515.8ZM1542.13 403.48C1545.25 403.48 1547.65 405.04 1549.33 408.16C1551.01 411.28 1551.85 415.24 1551.85 420.04C1551.85 431.56 1548.37 438.4 1541.41 440.56C1527.01 445.6 1511.17 448.48 1493.89 449.2C1489.33 469.36 1480.33 485.56 1466.89 497.8C1453.45 509.8 1438.21 515.8 1421.17 515.8C1406.77 515.8 1394.41 512.32 1384.09 505.36C1374.01 498.4 1366.33 489.16 1361.05 477.64C1355.77 466.12 1353.13 453.64 1353.13 440.2C1353.13 421.96 1356.61 405.76 1363.57 391.6C1370.53 377.2 1380.13 366.04 1392.37 358.12C1404.61 349.96 1418.17 345.88 1433.05 345.88C1451.29 345.88 1465.93 352.24 1476.97 364.96C1488.25 377.44 1494.85 392.92 1496.77 411.4C1508.05 410.68 1521.49 408.28 1537.09 404.2C1539.01 403.72 1540.69 403.48 1542.13 403.48ZM1424.05 477.64C1431.73 477.64 1438.33 474.52 1443.85 468.28C1449.61 462.04 1453.45 453.04 1455.37 441.28C1447.93 436.24 1442.17 429.64 1438.09 421.48C1434.25 413.32 1432.33 404.68 1432.33 395.56C1432.33 391.72 1432.69 387.88 1433.41 384.04H1431.61C1422.01 384.04 1413.97 388.72 1407.49 398.08C1401.25 407.2 1398.13 420.16 1398.13 436.96C1398.13 450.16 1400.65 460.24 1405.69 467.2C1410.97 474.16 1417.09 477.64 1424.05 477.64ZM1546.51 515.8C1537.39 515.8 1530.91 511 1527.07 501.4C1523.47 491.8 1521.67 476.44 1521.67 455.32C1521.67 424.12 1526.11 394.48 1534.99 366.4C1537.15 359.44 1540.63 354.4 1545.43 351.28C1550.47 347.92 1557.43 346.24 1566.31 346.24C1571.11 346.24 1574.47 346.84 1576.39 348.04C1578.31 349.24 1579.27 351.52 1579.27 354.88C1579.27 358.72 1577.47 367.36 1573.87 380.8C1571.47 390.4 1569.55 398.8 1568.11 406C1566.67 412.96 1565.47 421.72 1564.51 432.28C1570.99 413.56 1578.67 397.72 1587.55 384.76C1596.67 371.8 1605.91 362.2 1615.27 355.96C1624.87 349.48 1633.87 346.24 1642.27 346.24C1650.67 346.24 1656.55 348.16 1659.91 352C1663.51 355.84 1665.31 361.72 1665.31 369.64C1665.31 377.32 1663.03 391.24 1658.47 411.4C1656.55 420.04 1655.23 426.52 1654.51 430.84C1666.51 401.32 1679.83 379.84 1694.47 366.4C1709.11 352.96 1722.79 346.24 1735.51 346.24C1751.11 346.24 1758.91 354.04 1758.91 369.64C1758.91 379 1756.27 395.92 1750.99 420.4C1746.43 441.28 1744.15 455.08 1744.15 461.8C1744.15 471.4 1747.63 476.2 1754.59 476.2C1759.39 476.2 1765.03 473.32 1771.51 467.56C1778.23 461.56 1787.11 451.96 1798.15 438.76C1801.03 435.4 1804.27 433.72 1807.87 433.72C1810.99 433.72 1813.39 435.16 1815.07 438.04C1816.99 440.92 1817.95 444.88 1817.95 449.92C1817.95 459.52 1815.67 466.96 1811.11 472.24C1800.79 484.96 1789.63 495.4 1777.63 503.56C1765.87 511.72 1752.43 515.8 1737.31 515.8C1725.07 515.8 1715.83 512.32 1709.59 505.36C1703.35 498.16 1700.23 487.84 1700.23 474.4C1700.23 467.68 1701.91 455.68 1705.27 438.4C1708.39 423.28 1709.95 412.84 1709.95 407.08C1709.95 403.24 1708.63 401.32 1705.99 401.32C1702.87 401.32 1698.43 405.4 1692.67 413.56C1686.91 421.48 1681.15 432.04 1675.39 445.24C1669.63 458.44 1664.95 472.36 1661.35 487C1658.71 498.52 1655.59 506.2 1651.99 510.04C1648.63 513.88 1643.11 515.8 1635.43 515.8C1627.51 515.8 1621.51 512.08 1617.43 504.64C1613.59 496.96 1611.67 487.72 1611.67 476.92C1611.67 467.8 1612.87 454.6 1615.27 437.32C1617.19 421.96 1618.15 411.88 1618.15 407.08C1618.15 403.24 1616.83 401.32 1614.19 401.32C1610.59 401.32 1606.03 405.64 1600.51 414.28C1594.99 422.92 1589.59 433.96 1584.31 447.4C1579.27 460.84 1575.19 474.04 1572.07 487C1569.43 498.28 1566.31 505.96 1562.71 510.04C1559.35 513.88 1553.95 515.8 1546.51 515.8ZM1833.12 515.8C1818.24 515.8 1806.36 510.4 1797.48 499.6C1788.6 488.8 1784.16 474.64 1784.16 457.12C1784.16 437.92 1788.6 419.8 1797.48 402.76C1806.36 385.48 1818.12 371.68 1832.76 361.36C1847.64 350.8 1863.36 345.52 1879.92 345.52C1885.2 345.52 1888.68 346.6 1890.36 348.76C1892.28 350.68 1893.84 354.28 1895.04 359.56C1900.08 358.6 1905.36 358.12 1910.88 358.12C1922.64 358.12 1928.52 362.32 1928.52 370.72C1928.52 375.76 1926.72 387.76 1923.12 406.72C1917.6 434.32 1914.84 453.52 1914.84 464.32C1914.84 467.92 1915.68 470.8 1917.36 472.96C1919.28 475.12 1921.68 476.2 1924.56 476.2C1929.12 476.2 1934.64 473.32 1941.12 467.56C1947.6 461.56 1956.36 451.96 1967.4 438.76C1970.28 435.4 1973.52 433.72 1977.12 433.72C1980.24 433.72 1982.64 435.16 1984.32 438.04C1986.24 440.92 1987.2 444.88 1987.2 449.92C1987.2 459.52 1984.92 466.96 1980.36 472.24C1970.52 484.48 1960.08 494.8 1949.04 503.2C1938 511.6 1927.32 515.8 1917 515.8C1909.08 515.8 1901.76 513.16 1895.04 507.88C1888.56 502.36 1883.64 494.92 1880.28 485.56C1867.8 505.72 1852.08 515.8 1833.12 515.8ZM1846.08 479.44C1851.36 479.44 1856.4 476.32 1861.2 470.08C1866 463.84 1869.48 455.56 1871.64 445.24L1884.96 379C1874.88 379.24 1865.52 383.08 1856.88 390.52C1848.48 397.72 1841.76 407.32 1836.72 419.32C1831.68 431.32 1829.16 444.04 1829.16 457.48C1829.16 464.92 1830.6 470.44 1833.48 474.04C1836.6 477.64 1840.8 479.44 1846.08 479.44ZM1983.5 515.8C1974.38 515.8 1967.9 511 1964.06 501.4C1960.46 491.8 1958.66 476.44 1958.66 455.32C1958.66 424.12 1963.1 394.48 1971.98 366.4C1974.14 359.44 1977.62 354.4 1982.42 351.28C1987.46 347.92 1994.42 346.24 2003.3 346.24C2008.1 346.24 2011.46 346.84 2013.38 348.04C2015.3 349.24 2016.26 351.52 2016.26 354.88C2016.26 358.72 2014.46 367.36 2010.86 380.8C2008.46 390.4 2006.54 398.8 2005.1 406C2003.66 413.2 2002.46 422.08 2001.5 432.64C2009.42 412 2018.3 395.2 2028.14 382.24C2037.98 369.28 2047.58 360.04 2056.94 354.52C2066.54 349 2075.3 346.24 2083.22 346.24C2098.82 346.24 2106.62 354.04 2106.62 369.64C2106.62 372.76 2105.54 380.32 2103.38 392.32C2101.46 401.92 2100.5 407.92 2100.5 410.32C2100.5 418.72 2103.5 422.92 2109.5 422.92C2116.22 422.92 2124.86 417.64 2135.42 407.08C2138.54 403.96 2141.78 402.4 2145.14 402.4C2148.26 402.4 2150.66 403.84 2152.34 406.72C2154.26 409.36 2155.22 412.96 2155.22 417.52C2155.22 426.4 2152.82 433.36 2148.02 438.4C2141.3 445.36 2133.38 451.36 2124.26 456.4C2115.38 461.2 2105.9 463.6 2095.82 463.6C2083.1 463.6 2073.38 460.36 2066.66 453.88C2060.18 447.4 2056.94 438.64 2056.94 427.6C2056.94 424 2057.3 420.4 2058.02 416.8C2058.5 412 2058.74 408.76 2058.74 407.08C2058.74 403.24 2057.42 401.32 2054.78 401.32C2051.18 401.32 2046.38 405.4 2040.38 413.56C2034.62 421.48 2028.86 432.04 2023.1 445.24C2017.34 458.44 2012.66 472.36 2009.06 487C2006.42 498.28 2003.3 505.96 1999.7 510.04C1996.34 513.88 1990.94 515.8 1983.5 515.8ZM2163.17 515.8C2149.49 515.8 2138.33 510.4 2129.69 499.6C2121.29 488.8 2117.09 474.64 2117.09 457.12C2117.09 437.92 2121.53 419.8 2130.41 402.76C2139.29 385.48 2151.05 371.68 2165.69 361.36C2180.57 350.8 2196.29 345.52 2212.85 345.52C2218.13 345.52 2221.61 346.6 2223.29 348.76C2225.21 350.68 2226.77 354.28 2227.97 359.56C2232.53 358.6 2237.57 358.12 2243.09 358.12C2248.85 358.12 2253.29 359.56 2256.41 362.44C2259.53 365.32 2261.09 369.4 2261.09 374.68C2261.09 380.2 2259.89 389.8 2257.49 403.48C2254.85 418.12 2252.81 432.16 2251.37 445.6C2249.93 458.8 2249.21 473.68 2249.21 490.24C2249.21 499.36 2247.29 505.96 2243.45 510.04C2239.85 513.88 2233.85 515.8 2225.45 515.8C2217.29 515.8 2211.17 513.88 2207.09 510.04C2203.25 505.96 2201.33 499.48 2201.33 490.6L2201.69 484.84C2194.25 505.48 2181.41 515.8 2163.17 515.8ZM2177.21 479.44C2183.93 479.44 2190.05 474.76 2195.57 465.4C2201.09 456.04 2206.01 439.36 2210.33 415.36L2217.17 379C2207.33 379.24 2198.21 383.08 2189.81 390.52C2181.41 397.72 2174.69 407.32 2169.65 419.32C2164.61 431.32 2162.09 444.04 2162.09 457.48C2162.09 464.68 2163.41 470.2 2166.05 474.04C2168.93 477.64 2172.65 479.44 2177.21 479.44Z" fill="#3C3C3C"/>
</svg>
